<svg width="16" height="17" viewBox="0 0 16 17" fill="none" xmlns="http://www.w3.org/2000/svg">
<path d="M0 15.7983C0.4448 14.2719 0.888 12.7455 1.3328 11.2191C1.368 11.0975 1.4048 10.9759 1.4368 10.8543C1.488 10.6703 1.584 10.5215 1.7312 10.3983C1.8688 10.2847 1.9904 10.1487 2.1168 10.0223C4.2016 7.95669 6.2864 5.89109 8.3696 3.8239C8.4176 3.7759 8.4592 3.7215 8.4928 3.6799C8.776 3.9647 9.0416 4.2319 9.3376 4.5295C9.3056 4.5519 9.2432 4.5839 9.1952 4.6319C7.0352 6.78709 4.8768 8.94229 2.7216 11.1023C2.6448 11.1807 2.5808 11.2879 2.5504 11.3935C2.2912 12.2495 2.0448 13.1103 1.7888 13.9695C1.7568 14.0767 1.7728 14.1439 1.8544 14.2175C1.9872 14.3375 2.104 14.4751 2.2384 14.5935C2.2848 14.6335 2.3728 14.6639 2.4288 14.6495C3.2896 14.4031 4.1488 14.1519 5.0064 13.8927C5.08 13.8703 5.1488 13.8079 5.2064 13.7487C7.3968 11.5647 9.584 9.37749 11.7712 7.19189C11.8128 7.15029 11.848 7.10389 11.872 7.07669C12.1824 7.38709 12.4832 7.68789 12.8128 8.01749C12.7984 8.02709 12.7408 8.05109 12.7008 8.09109C10.544 10.2271 8.384 12.3583 6.2384 14.5055C5.9392 14.8063 5.6144 14.9919 5.2128 15.1055C3.7888 15.5087 2.3712 15.9343 0.9504 16.3519C0.856 16.3791 0.76 16.4047 0.6656 16.4319H0.5376C0.4688 16.4015 0.3984 16.3743 0.3296 16.3423C0.1376 16.2527 0.072 16.0703 0 15.8927V15.7983ZM4.3024 13.1471C4.2608 12.8815 4.216 12.6383 4.1872 12.3951C4.1728 12.2799 4.1264 12.2335 4.0144 12.2127C3.7408 12.1599 3.4704 12.0911 3.2176 12.0351C5.4864 9.76148 7.7552 7.48629 10.0096 5.2255C10.3696 5.58549 10.7456 5.95989 11.1088 6.32149C8.8624 8.57429 6.5952 10.8479 4.3024 13.1471ZM10.8368 1.45751C11.0416 1.25751 11.2464 1.04471 11.4656 0.846307C12.0944 0.279908 12.9136 0.292708 13.5264 0.891107C14.2032 1.5503 14.8704 2.2175 15.5296 2.8943C16.1536 3.5327 16.144 4.3871 15.5216 5.0239C15.3344 5.2159 15.1408 5.4031 14.9616 5.57909C13.592 4.2111 12.224 2.8447 10.8368 1.45751ZM9.168 2.9679C9.4784 2.6767 9.7968 2.3775 10.0992 2.0927C11.5328 3.5263 12.9584 4.9535 14.3968 6.39189C14.0976 6.67189 13.776 6.97429 13.4656 7.26549L9.168 2.9679Z" fill="#A0A4A8"/>
</svg>
