<svg width="42" height="38" viewBox="0 0 42 38" fill="none" xmlns="http://www.w3.org/2000/svg">
<rect width="36" height="36" rx="18" fill="#DBEFFA"/>
<mask id="mask0_575_114" style="mask-type:alpha" maskUnits="userSpaceOnUse" x="6" y="2" width="36" height="36">
<circle cx="24" cy="20" r="18" fill="#C4E9FA"/>
</mask>
<g mask="url(#mask0_575_114)">
<rect x="-13.5627" y="-6.91309" width="64.0129" height="51.8585" fill="#449BC0"/>
<path d="M13.4022 12.9911C11.5463 6.45588 15.1071 2.73822 17.1195 1.69629L41.9668 6.63449V20.0307C41.7914 21.3824 37.9173 24.0758 37.6378 27.0965C34.0949 29.1248 25.1398 31.4527 22.961 30.879C22.6611 30.8 21.0884 31.0103 20.3337 31.0103C18.5543 30.9665 14.7046 30.6793 13.5419 29.8808C12.3792 29.0823 12.5358 27.6569 12.7593 27.044C12.7128 26.6237 12.519 25.7464 12.1165 25.5993C11.714 25.4522 11.5389 25.1177 11.5016 24.9689C11.278 24.3175 11.8184 23.8919 12.1165 23.7606C11.8743 23.6118 11.3619 23.1932 11.2501 22.7099C11.1103 22.1058 11.7811 21.633 12.1165 21.1339C12.3848 20.7346 12.0979 20.3722 11.9209 20.2408C11.1569 19.698 9.93084 18.4809 11.1383 17.9556C12.6475 17.2989 13.2904 14.6722 13.4022 14.1469C13.4916 13.7266 13.4395 13.2013 13.4022 12.9911Z" fill="#DBEFFA"/>
<path d="M38.1124 33.6503C37.3751 30.7161 37.5259 28.2566 37.6935 27.3936L22.5001 29.9556L23.8965 38.289C28.9424 37.9653 38.8497 36.5845 38.1124 33.6503Z" fill="#DBEFFA"/>
<path d="M14.7821 3.87491C16.6759 1.41672 19.339 -0.468113 22.4262 -1.53529C25.5133 -2.60247 28.8822 -2.80278 32.0962 -2.11027C35.3102 -1.41776 38.221 0.13564 40.4515 2.3486C42.682 4.56155 44.1292 7.33203 44.6057 10.3009C45.0821 13.2698 44.5658 16.3003 43.1235 18.9995C41.6813 21.6987 39.3798 23.9421 36.5171 25.4391C33.6545 26.9361 30.3628 27.6176 27.0687 27.3953C23.7747 27.1729 20.63 26.057 18.0425 24.1921L28.2906 12.4609L14.7821 3.87491Z" fill="#DBEFFA"/>
<path d="M17.9998 33.7016C20.0815 33.5239 23.7799 32.4138 25.0249 31.6698C27.5462 30.1631 28.4281 28.5528 26.783 18.8323C25.4668 11.0559 30.9722 10.2351 33.8894 10.7968" stroke="#449BC0" stroke-width="3" stroke-linecap="round"/>
<path d="M23.9195 22.9483L32.4476 21.8584" stroke="#449BC0" stroke-width="3" stroke-linecap="round"/>
</g>
</svg>
