<svg width="18" height="16" viewBox="0 0 18 16" fill="none" xmlns="http://www.w3.org/2000/svg">
<path d="M8.09106 13.5986C9.88749 13.5986 11.6103 12.927 12.8806 11.7314C14.1509 10.5359 14.8645 8.91439 14.8645 7.22363C14.8645 5.53288 14.1509 3.91137 12.8806 2.71583C11.6103 1.52028 9.88749 0.848633 8.09106 0.848633C6.29464 0.848633 4.57179 1.52028 3.30152 2.71583C2.03125 3.91137 1.31763 5.53288 1.31763 7.22363C1.31763 8.91439 2.03125 10.5359 3.30152 11.7314C4.57179 12.927 6.29464 13.5986 8.09106 13.5986V13.5986ZM14.0592 14.0874C14.4581 15.2207 15.3687 15.334 16.0687 14.3424C16.7084 13.4357 16.2869 12.692 15.1279 12.692C14.2699 12.6849 13.7883 13.3153 14.0592 14.0874V14.0874Z" stroke="white" stroke-width="1.5" stroke-linecap="round" stroke-linejoin="round"/>
</svg>
